<svg xmlns="http://www.w3.org/2000/svg" viewBox="0 0 38.559 38.56">
  <defs>
    <style>
      .cls-1 {
        fill: #0099db;
      }
    </style>
  </defs>
  <path id="F_icon" class="cls-1" d="M41.019,4.588H6.716A2.128,2.128,0,0,0,4.588,6.716v34.3a2.128,2.128,0,0,0,2.128,2.128H25.184V28.215H20.159V22.4h5.025V18.1c0-4.98,3.042-7.692,7.485-7.692a41.194,41.194,0,0,1,4.49.229v5.2H34.077c-2.416,0-2.884,1.148-2.884,2.833V22.4h5.763l-.75,5.819H31.193V43.148h9.826a2.128,2.128,0,0,0,2.128-2.128V6.716A2.128,2.128,0,0,0,41.019,4.588Z" transform="translate(-4.588 -4.588)"/>
</svg>
