<svg id="instagram" xmlns="http://www.w3.org/2000/svg" viewBox="0 0 38.559 38.559">
  <defs>
    <style>
      .cls-1 {
        fill: #0099db;
      }
    </style>
  </defs>
  <path id="Path_69" data-name="Path 69" class="cls-1" d="M23.358,7.553c5.148,0,5.758.02,7.791.112a10.669,10.669,0,0,1,3.58.664,6.385,6.385,0,0,1,3.659,3.659,10.666,10.666,0,0,1,.664,3.58c.093,2.033.112,2.643.112,7.791s-.02,5.758-.112,7.791a10.671,10.671,0,0,1-.664,3.58,6.385,6.385,0,0,1-3.659,3.659,10.666,10.666,0,0,1-3.58.664c-2.033.093-2.642.112-7.791.112s-5.758-.02-7.791-.112a10.67,10.67,0,0,1-3.58-.664,6.385,6.385,0,0,1-3.659-3.659,10.666,10.666,0,0,1-.664-3.58c-.093-2.033-.112-2.643-.112-7.791s.02-5.758.112-7.791a10.669,10.669,0,0,1,.664-3.58,6.386,6.386,0,0,1,3.659-3.659,10.666,10.666,0,0,1,3.58-.664c2.033-.093,2.643-.112,7.791-.112m0-3.474c-5.236,0-5.893.022-7.949.116a14.15,14.15,0,0,0-4.68.9A9.862,9.862,0,0,0,5.091,10.73a14.153,14.153,0,0,0-.9,4.68c-.094,2.056-.116,2.713-.116,7.949s.022,5.893.116,7.949a14.15,14.15,0,0,0,.9,4.68,9.859,9.859,0,0,0,5.638,5.638,14.151,14.151,0,0,0,4.68.9c2.056.094,2.713.116,7.949.116s5.893-.022,7.949-.116a14.15,14.15,0,0,0,4.68-.9,9.858,9.858,0,0,0,5.638-5.638,14.151,14.151,0,0,0,.9-4.68c.094-2.056.116-2.713.116-7.949s-.022-5.893-.116-7.949a14.15,14.15,0,0,0-.9-4.68,9.861,9.861,0,0,0-5.639-5.639,14.153,14.153,0,0,0-4.68-.9c-2.056-.094-2.713-.116-7.949-.116h0Z" transform="translate(-4.079 -4.079)"/>
  <path id="Path_70" data-name="Path 70" class="cls-1" d="M136.535,126.635a9.9,9.9,0,1,0,9.9,9.9A9.9,9.9,0,0,0,136.535,126.635Zm0,16.327a6.426,6.426,0,1,1,6.426-6.426,6.426,6.426,0,0,1-6.426,6.426Z" transform="translate(-117.256 -117.256)"/>
  <circle id="Ellipse_5" data-name="Ellipse 5" class="cls-1" cx="2.313" cy="2.313" r="2.313" transform="translate(27.257 6.674)"/>
</svg>
