<?xml version="1.0" encoding="utf-8"?>
<!-- Generator: Adobe Illustrator 22.1.0, SVG Export Plug-In . SVG Version: 6.00 Build 0)  -->
<svg version="1.1" id="Group_36" xmlns="http://www.w3.org/2000/svg" xmlns:xlink="http://www.w3.org/1999/xlink" x="0px" y="0px"
	 width="22.9px" height="38.4px" viewBox="0 0 22.9 38.4" style="enable-background:new 0 0 22.9 38.4;" xml:space="preserve">
<style type="text/css">
	.st0{fill:#0099DB;}
</style>
<g id="Group_34" transform="translate(0)">
	<path id="Path_64" class="st0" d="M14.7,38.4c-3.2,0.1-6.3-0.9-8.8-2.8C-0.6,30.4,0,20.1,0,19.7L0,0h4.4v19.9
		c0,0.2-0.5,8.6,4.3,12.3c2.9,2.3,7.2,2.5,13,0.7l1.3,4.2C20.3,37.9,17.5,38.3,14.7,38.4z"/>
</g>
<g id="Group_35" transform="translate(4.383 107.176)">
	<path id="Path_65" class="st0" d="M6.9-74.2C4.4-74.4,2-75.3,0-76.9l1-1.3c0,0,3.7,2.9,7.1,2.2c1.8-0.4,3.2-1.8,4.4-4l1.5,0.7
		c-1.3,2.8-3.2,4.4-5.5,4.9C7.9-74.3,7.4-74.2,6.9-74.2z"/>
</g>
</svg>
