<svg id="Group_40" data-name="Group 40" xmlns="http://www.w3.org/2000/svg" viewBox="0 0 35.567 105.034">
  <defs>
    <style>
      .cls-1 {
        fill: #0099db;
      }
    </style>
  </defs>
  <g id="Group_37" data-name="Group 37" transform="translate(0 0.301)">
    <path id="Path_66" data-name="Path 66" class="cls-1" d="M4.363,104.83H0V34.907C-.012,34.1-.117,14.2,16.542.1l2.815,3.327c-15.1,12.78-15,31.263-15,31.449V104.83Z" transform="translate(0 -0.097)"/>
  </g>
  <g id="Group_38" data-name="Group 38" transform="translate(1.911 19.354)">
    <path id="Path_67" data-name="Path 67" class="cls-1" d="M2.8,31.79H.616c0-6.266,2.521-24.414,13.72-25.548l.217,2.167C5.667,9.312,2.8,24.551,2.8,31.79Z" transform="translate(-0.616 -6.242)"/>
  </g>
  <g id="Group_39" data-name="Group 39" transform="translate(1.638)">
    <path id="Path_68" data-name="Path 68" class="cls-1" d="M2.708,41.814H.528C.528,18.473,18.461,4.7,33.821,0l.636,2.084C19.81,6.567,2.708,19.66,2.708,41.814Z" transform="translate(-0.528)"/>
  </g>
</svg>
