<svg xmlns="http://www.w3.org/2000/svg" xmlns:xlink="http://www.w3.org/1999/xlink" viewBox="0 0 151.086 31.588">
  <defs>
    <style>
      .cls-1 {
        fill: none;
      }

      .cls-2 {
        clip-path: url(#clip-path);
      }

      .cls-3 {
        fill: #ff422e;
      }

      .cls-4 {
        fill: #00b0e8;
      }
    </style>
    <clipPath id="clip-path">
      <path id="Path_19" data-name="Path 19" class="cls-1" d="M0-8.585H151.086V-40.173H0Z" transform="translate(0 40.173)"/>
    </clipPath>
  </defs>
  <g id="Group_49" data-name="Group 49" transform="translate(0 40.173)">
    <g id="Group_20" data-name="Group 20" class="cls-2" transform="translate(0 -40.173)">
      <g id="Group_3" data-name="Group 3" transform="translate(37.146 0.33)">
        <path id="Path_1" data-name="Path 1" class="cls-3" d="M-5.917-7.2a11.128,11.128,0,0,1-5.478,1.115c-7.333,0-11.836-4.736-11.836-12.117,0-6.858,4.072-11.865,11.893-11.883h7.661l1.892-3.622h-10.18v.024c-9.428.255-15.723,6.71-15.723,15.945,0,8.912,6.082,15.318,15.272,15.318A23.317,23.317,0,0,0-1.785-4.975v-12.9H-5.917Z" transform="translate(27.688 33.71)"/>
      </g>
      <g id="Group_4" data-name="Group 4" transform="translate(28.167 0.43)">
        <path id="Path_2" data-name="Path 2" class="cls-3" d="M0,0V30.708H4.161V1.517Z"/>
      </g>
      <g id="Group_5" data-name="Group 5" transform="translate(0 0.331)">
        <path id="Path_3" data-name="Path 3" class="cls-3" d="M0-8.373,15.521-35.581,1.45-35.567.234-39.181h21.88L6.779-12.067h15.9v3.694Z" transform="translate(0 39.181)"/>
      </g>
      <g id="Group_6" data-name="Group 6" transform="translate(65.633 0.331)">
        <path id="Path_4" data-name="Path 4" class="cls-3" d="M-5.883-1h-8.6V26.111h-4.208V-1h-8.836V-4.7H-4.621Z" transform="translate(27.528 4.697)"/>
      </g>
      <g id="Group_7" data-name="Group 7" transform="translate(96.137 0.061)">
        <path id="Path_5" data-name="Path 5" class="cls-4" d="M0,0H5.162l-.5,1.665H1.974V3.381H4.62V5.047H1.974V8.5H0Z"/>
      </g>
      <g id="Group_8" data-name="Group 8" transform="translate(102.371 0.061)">
        <path id="Path_6" data-name="Path 6" class="cls-4" d="M-.7-1.035A1.524,1.524,0,0,0,.07-1.2a1.043,1.043,0,0,0,.516-.941,1.063,1.063,0,0,0-.594-.981,1.519,1.519,0,0,0-.683-.129h-.632v2.22ZM-3.3-4.842H-.562a4.7,4.7,0,0,1,1.755.284,2.235,2.235,0,0,1,1.446,2.22A2.234,2.234,0,0,1,1.013-.183v.026A3.969,3.969,0,0,1,2.1,1.249L3.438,3.663H1.193L.16,1.727C-.279.9-.562.591-.756.552h-.568V3.663H-3.3Z" transform="translate(3.298 4.842)"/>
      </g>
      <g id="Group_9" data-name="Group 9" transform="translate(110.139 0.061)">
        <path id="Path_7" data-name="Path 7" class="cls-4" d="M0,0H5.11l-.5,1.665H1.974V3.381H4.646V5.047H1.974V6.84h3.11V8.5H0Z"/>
      </g>
      <g id="Group_10" data-name="Group 10" transform="translate(116.927 0.061)">
        <path id="Path_8" data-name="Path 8" class="cls-4" d="M0,0H5.111l-.5,1.665H1.974V3.381H4.646V5.047H1.974V6.84h3.11V8.5H0Z"/>
      </g>
      <g id="Group_11" data-name="Group 11" transform="translate(123.456 0.061)">
        <path id="Path_9" data-name="Path 9" class="cls-4" d="M-.793-1.859A2.474,2.474,0,0,0,1.995-4.453C1.995-6.1,1-7.034-.831-7.034h-.9v5.175ZM-3.709-8.7H-.638C2.343-8.7,4.1-7.1,4.1-4.517,4.1-1.833,2.033-.194-.844-.194H-3.709Z" transform="translate(3.709 8.699)"/>
      </g>
      <g id="Group_12" data-name="Group 12" transform="translate(132.296 -0.03)">
        <path id="Path_10" data-name="Path 10" class="cls-4" d="M-1.813-1.186c0-1.807-.942-2.723-2.283-2.723s-2.285.916-2.285,2.723S-5.44,1.537-4.1,1.537-1.813.621-1.813-1.186m-6.672,0A4.173,4.173,0,0,1-4.1-5.548,4.172,4.172,0,0,1,.29-1.186,4.172,4.172,0,0,1-4.1,3.176,4.173,4.173,0,0,1-8.485-1.186" transform="translate(8.485 5.548)"/>
      </g>
      <g id="Group_13" data-name="Group 13" transform="translate(142.168 0.061)">
        <path id="Path_11" data-name="Path 11" class="cls-4" d="M0,0H1.781L3.91,2.968c.258.361.464.671.658,1.007h.025A11.6,11.6,0,0,1,5.214,2.9L7.123,0H8.918V8.5H6.943V4.168c0-.309,0-.658.013-.916H6.943c-.078.182-.426.684-.568.9L4.994,6.247H4.13L2.555,4.079a7.706,7.706,0,0,1-.568-.826H1.961c.013.284.013.62.013.852V8.5H0Z"/>
      </g>
      <g id="Group_14" data-name="Group 14" transform="translate(95.815 11.413)">
        <path id="Path_12" data-name="Path 12" class="cls-4" d="M-1.813-1.186c0-1.807-.942-2.723-2.283-2.723s-2.285.916-2.285,2.723S-5.44,1.537-4.1,1.537-1.813.621-1.813-1.186m-6.672,0A4.173,4.173,0,0,1-4.1-5.548,4.172,4.172,0,0,1,.29-1.186,4.172,4.172,0,0,1-4.1,3.176,4.173,4.173,0,0,1-8.485-1.186" transform="translate(8.485 5.548)"/>
      </g>
      <g id="Group_15" data-name="Group 15" transform="translate(105.945 11.504)">
        <path id="Path_13" data-name="Path 13" class="cls-4" d="M0,0H5.162l-.5,1.665H1.974V3.381H4.62V5.047H1.974V8.5H0Z"/>
      </g>
      <g id="Group_16" data-name="Group 16" transform="translate(96.137 22.947)">
        <path id="Path_14" data-name="Path 14" class="cls-4" d="M0,0H1.781L3.91,2.968c.258.361.464.671.658,1.007h.025A11.6,11.6,0,0,1,5.214,2.9L7.123,0H8.918V8.5H6.943V4.169c0-.31,0-.659.013-.917H6.943c-.078.182-.426.684-.568.9L4.994,6.247H4.13L2.555,4.079a7.706,7.706,0,0,1-.568-.826H1.961c.013.284.013.62.013.852V8.5H0Z"/>
      </g>
      <g id="Group_17" data-name="Group 17" transform="translate(106.99 22.947)">
        <path id="Path_15" data-name="Path 15" class="cls-4" d="M0,0H5.111l-.5,1.665H1.974V3.381H4.646V5.047H1.974V6.84h3.11V8.5H0Z"/>
      </g>
      <g id="Group_18" data-name="Group 18" transform="translate(113.777 22.947)">
        <path id="Path_16" data-name="Path 16" class="cls-4" d="M-.793-1.859A2.474,2.474,0,0,0,1.995-4.453C1.995-6.1,1-7.034-.831-7.034h-.9v5.175ZM-3.709-8.7H-.638C2.343-8.7,4.1-7.1,4.1-4.517,4.1-1.833,2.033-.194-.844-.194H-3.709Z" transform="translate(3.709 8.699)"/>
      </g>
      <path id="Path_17" data-name="Path 17" class="cls-4" d="M156.68-10.99h1.974v8.5H156.68Z" transform="translate(-33.481 33.937)"/>
      <g id="Group_19" data-name="Group 19" transform="translate(126.424 22.908)">
        <path id="Path_18" data-name="Path 18" class="cls-4" d="M-1.35-1.343l-.4-1.175c-.193-.58-.3-.942-.362-1.212h-.025a9.633,9.633,0,0,1-.4,1.225l-.427,1.162ZM-2.976-6.286H-1.35L2.172,2.257H.056L-.757.232H-3.519l-.775,2.026H-6.319Z" transform="translate(6.319 6.286)"/>
      </g>
    </g>
  </g>
</svg>
