<svg id="Twitter_Bird" xmlns="http://www.w3.org/2000/svg" viewBox="0 0 47.747 38.804">
  <defs>
    <style>
      .cls-1 {
        fill: #1da1f2;
      }
    </style>
  </defs>
  <path id="path3611" class="cls-1" d="M555.2,608.662c18.019,0,27.872-14.928,27.872-27.872q0-.636-.028-1.266a19.919,19.919,0,0,0,4.886-5.073,19.534,19.534,0,0,1-5.626,1.542,9.83,9.83,0,0,0,4.308-5.418,19.643,19.643,0,0,1-6.221,2.378,9.8,9.8,0,0,0-16.693,8.934A27.814,27.814,0,0,1,543.5,571.651a9.8,9.8,0,0,0,3.033,13.078A9.724,9.724,0,0,1,542.1,583.5c0,.041,0,.081,0,.125a9.8,9.8,0,0,0,7.859,9.6,9.781,9.781,0,0,1-4.424.168,9.806,9.806,0,0,0,9.151,6.8,19.652,19.652,0,0,1-12.167,4.193,19.894,19.894,0,0,1-2.337-.136,27.73,27.73,0,0,0,15.016,4.4" transform="translate(-540.179 -569.858)"/>
</svg>
